<svg width="199" height="24" viewBox="0 0 199 24" fill="none" xmlns="http://www.w3.org/2000/svg">
<path d="M171.603 0.000488281H198.14V7.50982H189.294V23.8938H180.448V7.50982H171.603V0.000488281Z" fill="white"/>
<path d="M160.704 23.8938V0.000488281H169.55V23.8938H160.704Z" fill="white"/>
<path d="M83.6246 0.000488281H108.8V6.82716H92.4702V8.87516H108.46V15.0192H92.4702V17.0672H108.8V23.8938H83.6246V0.000488281Z" fill="white"/>
<path d="M55.0534 0.000488281H81.59V7.50982H72.7445V23.8938H63.8989V7.50982H55.0534V0.000488281Z" fill="white"/>
<path d="M38.9544 0.000488281H49.501L39.2946 12.9712H45.7587V8.19249H54.6042V12.9712H58.0063V20.4805H54.6042V23.8938H45.7587V20.4805H28.748V12.9712L38.9544 0.000488281Z" fill="white"/>
<path d="M8.84554 7.50982V10.9232H16.0581C17.6004 10.9232 18.3715 10.3543 18.3715 9.21649C18.3715 8.07871 17.6004 7.50982 16.0581 7.50982H8.84554ZM8.84554 18.4325V23.8938H0V0.000488281H15.7519C19.4942 0.000488281 22.352 0.819689 24.3252 2.45809C26.2531 4.02822 27.217 6.28102 27.217 9.21649C27.217 12.9256 25.6974 15.5425 22.6582 17.0672L27.217 23.8938H18.0313L14.391 18.4325H8.84554Z" fill="white"/>
<path d="M143.793 8.41651L145.013 10.9074L147.755 11.309L145.77 13.2591L146.237 16.0032L143.793 14.7081L141.349 16.0032L141.816 13.2591L139.831 11.309L142.573 10.9074L143.793 8.41651Z" fill="white"/>
<path fill-rule="evenodd" clip-rule="evenodd" d="M157.88 0.000488281H112.164V24.0005H157.88V0.000488281ZM132.31 10.2687C132.451 10.2893 132.568 10.3887 132.612 10.5251C132.656 10.6615 132.619 10.8112 132.517 10.9113L129.655 13.7231L130.331 17.6934C130.355 17.8347 130.297 17.9776 130.182 18.0619C130.067 18.1462 129.914 18.1573 129.788 18.0905L126.251 16.216L122.713 18.0905C122.659 18.1195 122.599 18.1338 122.54 18.1338C122.462 18.1338 122.385 18.1096 122.32 18.0619C122.205 17.9776 122.147 17.8348 122.171 17.6934L122.847 13.7231L119.985 10.9113C119.883 10.8112 119.846 10.6615 119.89 10.5251C119.934 10.3887 120.051 10.2893 120.192 10.2687L124.147 9.68943L125.916 6.07715C125.979 5.94855 126.109 5.86716 126.251 5.86716C126.393 5.86716 126.523 5.94855 126.586 6.07715L128.355 9.68943L132.31 10.2687ZM150.154 10.5251C150.11 10.3887 149.993 10.2893 149.852 10.2687L145.897 9.68943L144.128 6.07715C144.065 5.94855 143.935 5.86716 143.793 5.86716C143.651 5.86716 143.521 5.94855 143.458 6.07715L141.689 9.68943L137.734 10.2687C137.593 10.2893 137.476 10.3887 137.432 10.5251C137.389 10.6615 137.425 10.8112 137.527 10.9113L140.389 13.7231L139.713 17.6934C139.689 17.8348 139.747 17.9776 139.862 18.0619C139.927 18.1096 140.004 18.1338 140.082 18.1338C140.141 18.1338 140.201 18.1195 140.256 18.0905L143.793 16.216L147.331 18.0905C147.456 18.1573 147.609 18.1462 147.724 18.0619C147.839 17.9776 147.897 17.8347 147.873 17.6934L147.197 13.7231L150.059 10.9113C150.161 10.8112 150.198 10.6615 150.154 10.5251Z" fill="white"/>
</svg>
